<svg id="visual" viewBox="0 0 900 600" width="900" height="600" xmlns="http://www.w3.org/2000/svg" xmlns:xlink="http://www.w3.org/1999/xlink" version="1.1"><path d="M0 109L21.5 107C43 105 86 101 128.8 104C171.7 107 214.3 117 257.2 119C300 121 343 115 385.8 109C428.7 103 471.3 97 514.2 91C557 85 600 79 642.8 83C685.7 87 728.3 101 771.2 100C814 99 857 83 878.5 75L900 67L900 0L878.5 0C857 0 814 0 771.2 0C728.3 0 685.7 0 642.8 0C600 0 557 0 514.2 0C471.3 0 428.7 0 385.8 0C343 0 300 0 257.2 0C214.3 0 171.7 0 128.8 0C86 0 43 0 21.5 0L0 0Z" fill="#934aa5"></path><path d="M0 175L21.5 168C43 161 86 147 128.8 141C171.7 135 214.3 137 257.2 138C300 139 343 139 385.8 141C428.7 143 471.3 147 514.2 147C557 147 600 143 642.8 145C685.7 147 728.3 155 771.2 154C814 153 857 143 878.5 138L900 133L900 65L878.5 73C857 81 814 97 771.2 98C728.3 99 685.7 85 642.8 81C600 77 557 83 514.2 89C471.3 95 428.7 101 385.8 107C343 113 300 119 257.2 117C214.3 115 171.7 105 128.8 102C86 99 43 103 21.5 105L0 107Z" fill="#8661b8"></path><path d="M0 193L21.5 197C43 201 86 209 128.8 212C171.7 215 214.3 213 257.2 205C300 197 343 183 385.8 190C428.7 197 471.3 225 514.2 230C557 235 600 217 642.8 214C685.7 211 728.3 223 771.2 220C814 217 857 199 878.5 190L900 181L900 131L878.5 136C857 141 814 151 771.2 152C728.3 153 685.7 145 642.8 143C600 141 557 145 514.2 145C471.3 145 428.7 141 385.8 139C343 137 300 137 257.2 136C214.3 135 171.7 133 128.8 139C86 145 43 159 21.5 166L0 173Z" fill="#7974c6"></path><path d="M0 235L21.5 260C43 285 86 335 128.8 353C171.7 371 214.3 357 257.2 342C300 327 343 311 385.8 326C428.7 341 471.3 387 514.2 383C557 379 600 325 642.8 326C685.7 327 728.3 383 771.2 384C814 385 857 331 878.5 304L900 277L900 179L878.5 188C857 197 814 215 771.2 218C728.3 221 685.7 209 642.8 212C600 215 557 233 514.2 228C471.3 223 428.7 195 385.8 188C343 181 300 195 257.2 203C214.3 211 171.7 213 128.8 210C86 207 43 199 21.5 195L0 191Z" fill="#6e86cf"></path><path d="M0 259L21.5 290C43 321 86 383 128.8 404C171.7 425 214.3 405 257.2 390C300 375 343 365 385.8 376C428.7 387 471.3 419 514.2 416C557 413 600 375 642.8 379C685.7 383 728.3 429 771.2 427C814 425 857 375 878.5 350L900 325L900 275L878.5 302C857 329 814 383 771.2 382C728.3 381 685.7 325 642.8 324C600 323 557 377 514.2 381C471.3 385 428.7 339 385.8 324C343 309 300 325 257.2 340C214.3 355 171.7 369 128.8 351C86 333 43 283 21.5 258L0 233Z" fill="#6a96d4"></path><path d="M0 319L21.5 342C43 365 86 411 128.8 424C171.7 437 214.3 417 257.2 409C300 401 343 405 385.8 425C428.7 445 471.3 481 514.2 473C557 465 600 413 642.8 414C685.7 415 728.3 469 771.2 469C814 469 857 415 878.5 388L900 361L900 323L878.5 348C857 373 814 423 771.2 425C728.3 427 685.7 381 642.8 377C600 373 557 411 514.2 414C471.3 417 428.7 385 385.8 374C343 363 300 373 257.2 388C214.3 403 171.7 423 128.8 402C86 381 43 319 21.5 288L0 257Z" fill="#6da4d6"></path><path d="M0 529L21.5 535C43 541 86 553 128.8 553C171.7 553 214.3 541 257.2 537C300 533 343 537 385.8 546C428.7 555 471.3 569 514.2 566C557 563 600 543 642.8 541C685.7 539 728.3 555 771.2 557C814 559 857 547 878.5 541L900 535L900 359L878.5 386C857 413 814 467 771.2 467C728.3 467 685.7 413 642.8 412C600 411 557 463 514.2 471C471.3 479 428.7 443 385.8 423C343 403 300 399 257.2 407C214.3 415 171.7 435 128.8 422C86 409 43 363 21.5 340L0 317Z" fill="#79b2d6"></path><path d="M0 601L21.5 601C43 601 86 601 128.8 601C171.7 601 214.3 601 257.2 601C300 601 343 601 385.8 601C428.7 601 471.3 601 514.2 601C557 601 600 601 642.8 601C685.7 601 728.3 601 771.2 601C814 601 857 601 878.5 601L900 601L900 533L878.5 539C857 545 814 557 771.2 555C728.3 553 685.7 537 642.8 539C600 541 557 561 514.2 564C471.3 567 428.7 553 385.8 544C343 535 300 531 257.2 535C214.3 539 171.7 551 128.8 551C86 551 43 539 21.5 533L0 527Z" fill="#8bbed6"></path></svg>